Run_50002
nRows=4
nColumns=164

# SIMM Motion File Header:
name Run_50002
datacolumns 164
datarows 4
otherdata 1
range 1.15000000 1.18000000
endheader
time	pelvis_tilt	pelvis_list	pelvis_rotation	pelvis_tx	pelvis_ty	pelvis_tz	hip_flexion_r	hip_adduction_r	hip_rotation_r	knee_angle_r	ankle_angle_r	hip_flexion_l	hip_adduction_l	hip_rotation_l	knee_angle_l	ankle_angle_l	lumbar_extension	lumbar_bending	lumbar_rotation	arm_flex_r	arm_add_r	arm_rot_r	elbow_flex_r	pro_sup_r	arm_flex_l	arm_add_l	arm_rot_l	elbow_flex_l	pro_sup_l	subtalar_angle_r	mtp_angle_r	subtalar_angle_l	mtp_angle_l	wrist_flex_r	wrist_dev_r	wrist_flex_l	wrist_dev_l	LASI_tx	LASI_ty	LASI_tz	RASI_tx	RASI_ty	RASI_tz	LPSI_tx	LPSI_ty	LPSI_tz	RPSI_tx	RPSI_ty	RPSI_tz	RTH1_tx	RTH1_ty	RTH1_tz	RTH2_tx	RTH2_ty	RTH2_tz	RTH3_tx	RTH3_ty	RTH3_tz	LTH1_tx	LTH1_ty	LTH1_tz	LTH2_tx	LTH2_ty	LTH2_tz	LTH3_tx	LTH3_ty	LTH3_tz	RTB1_tx	RTB1_ty	RTB1_tz	RTB2_tx	RTB2_ty	RTB2_tz	RTB3_tx	RTB3_ty	RTB3_tz	LTB1_tx	LTB1_ty	LTB1_tz	LTB2_tx	LTB2_ty	LTB2_tz	LTB3_tx	LTB3_ty	LTB3_tz	RCAL_tx	RCAL_ty	RCAL_tz	RTOE_tx	RTOE_ty	RTOE_tz	RMT5_tx	RMT5_ty	RMT5_tz	LCAL_tx	LCAL_ty	LCAL_tz	LTOE_tx	LTOE_ty	LTOE_tz	LMT5_tx	LMT5_ty	LMT5_tz	LACR_tx	LACR_ty	LACR_tz	RACR_tx	RACR_ty	RACR_tz	CLAV_tx	CLAV_ty	CLAV_tz	C7_tx	C7_ty	C7_tz	RUA1_tx	RUA1_ty	RUA1_tz	RUA2_tx	RUA2_ty	RUA2_tz	RUA3_tx	RUA3_ty	RUA3_tz	RLEL_tx	RLEL_ty	RLEL_tz	RMEL_tx	RMEL_ty	RMEL_tz	LUA1_tx	LUA1_ty	LUA1_tz	LUA2_tx	LUA2_ty	LUA2_tz	LUA3_tx	LUA3_ty	LUA3_tz	LLEL_tx	LLEL_ty	LLEL_tz	LMEL_tx	LMEL_ty	LMEL_tz	RFAsuperior_tx	RFAsuperior_ty	RFAsuperior_tz	RFAradius_tx	RFAradius_ty	RFAradius_tz	RFAulna_tx	RFAulna_ty	RFAulna_tz	LFAsuperior_tx	LFAsuperior_ty	LFAsuperior_tz	LFAradius_tx	LFAradius_ty	LFAradius_tz	LFAulna_tx	LFAulna_ty	LFAulna_tz
      1.15000000	    -13.74411913	     -6.60614470	     -9.36081551	      1.00111787	      0.99169044	     -0.33904301	     43.26131241	     15.68436480	      1.15598336	    -15.34407649	     -8.13501061	     -5.59977215	     -1.72712611	     -4.24650679	    -70.11681599	    -18.22794423	      2.50125500	      9.40060235	     -6.09168424	    -50.29416286	    -21.09928944	    -18.56039852	    108.53724943	     99.47361912	    -24.83265708	    -10.93267324	    -10.99157614	    131.01569490	    106.86586520	      0.00000000	      0.00000000	      0.00000000	      0.00000000	      0.00000000	      0.00000000	      0.00000000	      0.00000000	      1.03662354	      1.00737511	     -0.46945437	      0.99755247	      1.04733253	     -0.22860146	      0.87510445	      1.08336213	     -0.43299917	      0.85070860	      1.08962816	     -0.32091734	      0.94362764	      0.93655386	     -0.16483935	      0.96260955	      0.77785259	     -0.19483715	      1.07202727	      0.66348575	     -0.20469508	      0.95743776	      0.87599654	     -0.51688144	      0.82773281	      0.76662418	     -0.47838308	      0.82332440	      0.62273645	     -0.46576288	      1.22106308	      0.45416254	     -0.28314441	      1.15470881	      0.38247671	     -0.22420220	      1.24735245	      0.26890353	     -0.31216020	      0.68256647	      0.45044185	     -0.40570754	      0.56956508	      0.52203246	     -0.46758553	      0.46278537	      0.45322987	     -0.42530336	      1.16628336	      0.11446918	     -0.32170872	      1.39817447	      0.15502958	     -0.37281239	      1.37135012	      0.09026328	     -0.28781692	      0.34982494	      0.56943543	     -0.41659042	      0.26691675	      0.34664916	     -0.40644252	      0.24352603	      0.40040941	     -0.50183693	      1.01945065	      1.52233158	     -0.51000569	      0.97200116	      1.50070864	     -0.19397513	      1.04719723	      1.46874744	     -0.30841930	      0.93659457	      1.54032005	     -0.36493558	      0.82823686	      1.46051945	     -0.17319358	      0.83634972	      1.39863760	     -0.11823603	      0.73320608	      1.36976526	     -0.10805098	      0.67251708	      1.32876280	     -0.09249976	      0.68961438	      1.29000095	     -0.17110749	      0.94092449	      1.42027602	     -0.58498944	      0.98004029	      1.34579404	     -0.59829107	      0.91912984	      1.27419753	     -0.63453576	      0.91156926	      1.20630921	     -0.65265536	      0.87802677	      1.18718783	     -0.56754694	      0.73545962	      1.24362253	     -0.06237727	      0.88728132	      1.15018916	     -0.09855157	      0.83665865	      1.11241314	     -0.07217798	      0.98634431	      1.18038631	     -0.62563486	      1.11651632	      1.24262777	     -0.50203528	      1.13957492	      1.18081039	     -0.53118323
      1.16000000	    -13.47514128	     -6.80190834	     -9.64232217	      1.00060470	      0.98637052	     -0.33955281	     42.05585345	     15.60701985	     -1.15698382	    -15.93222465	     -9.30101151	     -3.11211789	     -2.48227831	     -4.68714312	    -77.63832355	    -15.12787243	      1.94894378	      9.91964179	     -5.23859577	    -48.61090615	    -21.70232872	    -18.10717743	    108.92586937	     99.33322092	    -25.17340995	    -10.77916325	    -10.39346028	    127.72466501	    107.61223947	      0.00000000	      0.00000000	      0.00000000	      0.00000000	      0.00000000	      0.00000000	      0.00000000	      0.00000000	      1.03657368	      1.00192577	     -0.46863640	      0.99593391	      1.04282863	     -0.22990439	      0.87445084	      1.07808129	     -0.43424492	      0.84973530	      1.08397897	     -0.32255881	      0.94050871	      0.92928589	     -0.16696474	      0.95608561	      0.77038221	     -0.19641029	      1.06514656	      0.65483394	     -0.20595529	      0.96000795	      0.87031088	     -0.51715613	      0.83410063	      0.75636557	     -0.47673728	      0.83688426	      0.61239362	     -0.46733253	      1.20996358	      0.44210936	     -0.28089227	      1.14012753	      0.37089864	     -0.22529245	      1.23336319	      0.25623198	     -0.31094376	      0.69957075	      0.44542099	     -0.40951467	      0.59225654	      0.52819507	     -0.46760967	      0.48074771	      0.46574070	     -0.42847135	      1.14817013	      0.10657658	     -0.32707828	      1.38371349	      0.13660803	     -0.36561019	      1.35126192	      0.07073005	     -0.28386539	      0.37342218	      0.58982613	     -0.41304198	      0.28296067	      0.37009840	     -0.41805750	      0.26501439	      0.42998688	     -0.51087246	      1.01862403	      1.51721476	     -0.50941136	      0.97314632	      1.49271988	     -0.19265714	      1.04801515	      1.46267475	     -0.30764569	      0.93678818	      1.53507596	     -0.36342768	      0.83000446	      1.45004371	     -0.16908043	      0.84032595	      1.38773219	     -0.11484900	      0.73813953	      1.35677662	     -0.10165039	      0.67874983	      1.31440415	     -0.08522621	      0.69499203	      1.27676132	     -0.16557009	      0.93860956	      1.41635799	     -0.58420440	      0.97715924	      1.34138648	     -0.59791353	      0.91530534	      1.27107824	     -0.63399431	      0.90699583	      1.20319408	     -0.65183040	      0.87349370	      1.18363397	     -0.56786285	      0.74455408	      1.23109718	     -0.05678737	      0.89860096	      1.14305582	     -0.09686956	      0.85004490	      1.10346380	     -0.06946933	      0.98029308	      1.17221072	     -0.62650214	      1.11566547	      1.22223445	     -0.50184309	      1.13419301	      1.16026586	     -0.53373587
      1.17000000	    -13.27618668	     -6.71091611	     -9.84778028	      0.99936276	      0.98022967	     -0.34049635	     41.21112029	     15.20644631	     -3.10349872	    -18.21616860	     -9.36315881	     -0.17247395	     -2.95830479	     -4.91020513	    -84.85704040	    -11.93649192	      1.50109326	     10.13231154	     -4.22733821	    -46.60436739	    -22.39584680	    -17.48451536	    109.05088004	     99.33153944	    -25.41908908	    -10.73080504	     -9.59193388	    124.02306031	    108.76555074	      0.00000000	      0.00000000	      0.00000000	      0.00000000	      0.00000000	      0.00000000	      0.00000000	      0.00000000	      1.03599291	      0.99688531	     -0.46837095	      0.99432468	      1.03655863	     -0.23109844	      0.87270580	      1.07235710	     -0.43519396	      0.84877099	      1.07735006	     -0.32382239	      0.93687814	      0.92106681	     -0.16916011	      0.94939814	      0.76230961	     -0.19991298	      1.05831142	      0.64595663	     -0.20799555	      0.96304329	      0.86431176	     -0.51786245	      0.84129009	      0.74541072	     -0.47534905	      0.85210887	      0.60140598	     -0.46951961	      1.19699941	      0.42774631	     -0.27944621	      1.12318129	      0.35926655	     -0.22590102	      1.21255864	      0.24106617	     -0.31072895	      0.71956782	      0.43957486	     -0.41403841	      0.61784418	      0.53178333	     -0.46837727	      0.50277199	      0.47513290	     -0.43170428	      1.12000860	      0.10021043	     -0.33156211	      1.35833685	      0.11364321	     -0.36075142	      1.31923720	      0.05271930	     -0.27933083	      0.40000048	      0.60602034	     -0.41060806	      0.30549966	      0.38863760	     -0.42689903	      0.29157570	      0.45261037	     -0.51756484	      1.01688921	      1.51106985	     -0.50913733	      0.97446391	      1.48393880	     -0.19109102	      1.04877450	      1.45586872	     -0.30700747	      0.93670364	      1.52878748	     -0.36187358	      0.83226191	      1.43785930	     -0.16380005	      0.84539474	      1.37524987	     -0.11069269	      0.74432139	      1.34199773	     -0.09389842	      0.68668221	      1.29821994	     -0.07641144	      0.70170700	      1.26165721	     -0.15824840	      0.93523888	      1.41109613	     -0.58330806	      0.97320310	      1.33559664	     -0.59770658	      0.91062585	      1.26658054	     -0.63348540	      0.90125480	      1.19904925	     -0.65126573	      0.86767346	      1.17934188	     -0.56828001	      0.75540757	      1.21673479	     -0.05006662	      0.91127428	      1.13446459	     -0.09503903	      0.86515898	      1.09306729	     -0.06618837	      0.97286243	      1.16274534	     -0.62787099	      1.11240056	      1.19918525	     -0.50232911	      1.12658183	      1.13774163	     -0.53731997
      1.18000000	    -13.32550232	     -6.64365578	    -10.24671072	      0.99708660	      0.97335047	     -0.34134587	     41.09599283	     15.11211513	     -4.40534543	    -22.46330605	     -6.90938577	      3.36472513	     -3.59850802	     -5.22723344	    -91.78448881	     -8.88307042	      1.22095420	     10.42743863	     -2.78835108	    -44.34467612	    -23.18467683	    -16.81492201	    108.92028903	     99.51878170	    -25.51535543	    -10.72336725	     -8.54359858	    119.89472677	    110.02081162	      0.00000000	      0.00000000	      0.00000000	      0.00000000	      0.00000000	      0.00000000	      0.00000000	      0.00000000	      1.03529587	      0.99169368	     -0.46881216	      0.99225967	      1.02894819	     -0.23223210	      0.87034503	      1.06567055	     -0.43648226	      0.84745940	      1.07030881	     -0.32527701	      0.93236040	      0.91269951	     -0.17161635	      0.94271568	      0.75464703	     -0.20336103	      1.05185667	      0.63709844	     -0.20896417	      0.96603038	      0.85823030	     -0.51835178	      0.84995587	      0.73367029	     -0.47488770	      0.86920907	      0.59004342	     -0.47238783	      1.18311149	      0.41371488	     -0.27994097	      1.10465864	      0.34986223	     -0.22759068	      1.18523293	      0.22711224	     -0.31455131	      0.74254813	      0.43287291	     -0.41870762	      0.64597516	      0.53238731	     -0.47012263	      0.52824269	      0.48121845	     -0.43478476	      1.08220938	      0.09647104	     -0.33777727	      1.32190570	      0.09331513	     -0.36222003	      1.27733777	      0.04293887	     -0.27752855	      0.42907730	      0.61804473	     -0.40959397	      0.33314097	      0.40191279	     -0.43308293	      0.32168309	      0.46822898	     -0.52233494	      1.01429719	      1.50427828	     -0.50900729	      0.97620291	      1.47476363	     -0.18939723	      1.04939405	      1.44836486	     -0.30679904	      0.93622892	      1.52143965	     -0.36012171	      0.83503448	      1.42436021	     -0.15747119	      0.85172249	      1.36164604	     -0.10604951	      0.75207726	      1.32569925	     -0.08520243	      0.69660268	      1.28060490	     -0.06650057	      0.70992593	      1.24482735	     -0.14907676	      0.93082293	      1.40487771	     -0.58197066	      0.96821293	      1.32877337	     -0.59746044	      0.90520491	      1.26089966	     -0.63277690	      0.89437074	      1.19407943	     -0.65095151	      0.86071169	      1.17463457	     -0.56856263	      0.76825068	      1.20102309	     -0.04260432	      0.92528643	      1.12441361	     -0.09313363	      0.88187125	      1.08135802	     -0.06242858	      0.96400596	      1.15210823	     -0.62957509	      1.10664569	      1.17391655	     -0.50374387	      1.11662469	      1.11356488	     -0.54174465
